<?xml version="1.0" standalone="no"?>
 <!DOCTYPE svg PUBLIC "-//W3C//DTD SVG 1.1//EN" 
 "http://www.w3.org/Graphics/SVG/1.1/DTD/svg11.dtd"> 
<svg xmlns="http://www.w3.org/2000/svg" version="1.1" 
    width="29.7002cm" height="21.0007cm" viewBox="0 0 116930 82680 ">
<title>SVG Picture created as er2_pcbv2-F_Mask.svg date 2015/07/06 17:09:22 </title>
  <desc>Picture generated by PCBNEW </desc>
<g style="fill:#000000; fill-opacity:1;stroke:#000000; stroke-opacity:1;
stroke-linecap:round; stroke-linejoin:round; "
 transform="translate(0 0) scale(1 1)">
</g>
<g style="fill:#000000; fill-opacity:0.0; 
stroke:#000000; stroke-width:59.0551; stroke-opacity:1; 
stroke-linecap:round; stroke-linejoin:round;">
<path d="M75500 52700
L75500 30050
" />
<path d="M42500 30050
L42500 52700
" />
<path d="M75500 30050
L42500 30050
" />
<path d="M42500 52700
L75500 52700
" />
</g>
<g style="fill:#000000; fill-opacity:1.0; 
stroke:#000000; stroke-width:59.0551; stroke-opacity:1; 
stroke-linecap:round; stroke-linejoin:round;">
<polyline style="fill-rule:evenodd;"
points="55070,39964
54229,39964
54229,39573
55070,39573
55070,39964
" /> 
<polyline style="fill-rule:evenodd;"
points="52338,41196
48461,41196
48461,37003
52338,37003
52338,41196
" /> 
<polyline style="fill-rule:evenodd;"
points="55070,38626
54229,38626
54229,38235
55070,38235
55070,38626
" /> 
<polyline style="fill-rule:evenodd;"
points="55070,39295
54229,39295
54229,38904
55070,38904
55070,39295
" /> 
<polyline style="fill-rule:evenodd;"
points="55070,40634
54229,40634
54229,40243
55070,40243
55070,40634
" /> 
<polyline style="fill-rule:evenodd;"
points="55070,37956
54229,37956
54229,37565
55070,37565
55070,37956
" /> 
<polyline style="fill-rule:evenodd;"
points="55236,33683
55236,33348
55413,33348
55413,33683
55236,33683
" /> 
<polyline style="fill-rule:evenodd;"
points="55611,32851
55611,32516
55788,32516
55788,32851
55611,32851
" /> 
<polyline style="fill-rule:evenodd;"
points="55986,33683
55986,33348
56163,33348
56163,33683
55986,33683
" /> 
<polyline style="fill-rule:evenodd;"
points="54004,32529
54495,32529
54495,32820
54004,32820
54004,32529
" /> 
<polyline style="fill-rule:evenodd;"
points="54004,33279
54495,33279
54495,33570
54004,33570
54004,33279
" /> 
<polyline style="fill-rule:evenodd;"
points="56220,34204
56220,34695
55929,34695
55929,34204
56220,34204
" /> 
<polyline style="fill-rule:evenodd;"
points="55470,34204
55470,34695
55179,34695
55179,34204
55470,34204
" /> 
<polyline style="fill-rule:evenodd;"
points="43204,32479
43695,32479
43695,32770
43204,32770
43204,32479
" /> 
<polyline style="fill-rule:evenodd;"
points="43204,33229
43695,33229
43695,33520
43204,33520
43204,33229
" /> 
<polyline style="fill-rule:evenodd;"
points="57404,32979
57895,32979
57895,33270
57404,33270
57404,32979
" /> 
<polyline style="fill-rule:evenodd;"
points="57404,33729
57895,33729
57895,34020
57404,34020
57404,33729
" /> 
<polyline style="fill-rule:evenodd;"
points="56570,31354
56570,31845
56279,31845
56279,31354
56570,31354
" /> 
<polyline style="fill-rule:evenodd;"
points="55820,31354
55820,31845
55529,31845
55529,31354
55820,31354
" /> 
<polyline style="fill-rule:evenodd;"
points="66004,32529
66495,32529
66495,32820
66004,32820
66004,32529
" /> 
<polyline style="fill-rule:evenodd;"
points="66004,33279
66495,33279
66495,33570
66004,33570
66004,33279
" /> 
<polyline style="fill-rule:evenodd;"
points="62954,32529
63445,32529
63445,32820
62954,32820
62954,32529
" /> 
<polyline style="fill-rule:evenodd;"
points="62954,33279
63445,33279
63445,33570
62954,33570
62954,33279
" /> 
<polyline style="fill-rule:evenodd;"
points="44254,32479
44745,32479
44745,32770
44254,32770
44254,32479
" /> 
<polyline style="fill-rule:evenodd;"
points="44254,33229
44745,33229
44745,33520
44254,33520
44254,33229
" /> 
<polyline style="fill-rule:evenodd;"
points="44720,43220
44179,43220
44179,42679
44720,42679
44720,43220
" /> 
<circle cx="44450" cy="41950" r="270.472" /> 
<polyline style="fill-rule:evenodd;"
points="73179,43379
73720,43379
73720,43920
73179,43920
73179,43379
" /> 
<circle cx="73450" cy="44650" r="270.472" /> 
<polyline style="fill-rule:evenodd;"
points="50245,31379
50245,31920
49704,31920
49704,31379
50245,31379
" /> 
<circle cx="48975" cy="31650" r="270.472" /> 
<polyline style="fill-rule:evenodd;"
points="44095,51295
43554,51295
43554,50754
44095,50754
44095,51295
" /> 
<circle cx="43825" cy="50025" r="270.472" /> 
<polyline style="fill-rule:evenodd;"
points="57593,31294
57593,31038
57731,31038
57731,31294
57593,31294
" /> 
<polyline style="fill-rule:evenodd;"
points="57908,31294
57908,31038
58046,31038
58046,31294
57908,31294
" /> 
<polyline style="fill-rule:evenodd;"
points="58223,31294
58223,31038
58361,31038
58361,31294
58223,31294
" /> 
<polyline style="fill-rule:evenodd;"
points="58538,31294
58538,31038
58676,31038
58676,31294
58538,31294
" /> 
<polyline style="fill-rule:evenodd;"
points="58853,31294
58853,31038
58991,31038
58991,31294
58853,31294
" /> 
<polyline style="fill-rule:evenodd;"
points="59168,31294
59168,31038
59306,31038
59306,31294
59168,31294
" /> 
<polyline style="fill-rule:evenodd;"
points="59109,31668
59109,31531
59365,31531
59365,31668
59109,31668
" /> 
<polyline style="fill-rule:evenodd;"
points="59168,32121
59168,31865
59306,31865
59306,32121
59168,32121
" /> 
<polyline style="fill-rule:evenodd;"
points="58853,32121
58853,31865
58991,31865
58991,32121
58853,32121
" /> 
<polyline style="fill-rule:evenodd;"
points="58538,32121
58538,31865
58676,31865
58676,32121
58538,32121
" /> 
<polyline style="fill-rule:evenodd;"
points="58223,32121
58223,31865
58361,31865
58361,32121
58223,32121
" /> 
<polyline style="fill-rule:evenodd;"
points="57908,32121
57908,31865
58046,31865
58046,32121
57908,32121
" /> 
<polyline style="fill-rule:evenodd;"
points="57593,32121
57593,31865
57731,31865
57731,32121
57593,32121
" /> 
<polyline style="fill-rule:evenodd;"
points="57534,31668
57534,31531
57790,31531
57790,31668
57534,31668
" /> 
<polyline style="fill-rule:evenodd;"
points="44706,31969
44293,31969
44293,31556
44706,31556
44706,31969
" /> 
<polyline style="fill-rule:evenodd;"
points="44706,31143
44293,31143
44293,30730
44706,30730
44706,31143
" /> 
<polyline style="fill-rule:evenodd;"
points="43656,31969
43243,31969
43243,31556
43656,31556
43656,31969
" /> 
<polyline style="fill-rule:evenodd;"
points="43656,31143
43243,31143
43243,30730
43656,30730
43656,31143
" /> 
<polyline style="fill-rule:evenodd;"
points="58853,44133
58046,44133
58046,43562
58853,43562
58853,44133
" /> 
<polyline style="fill-rule:evenodd;"
points="58853,42637
58046,42637
58046,42066
58853,42066
58853,42637
" /> 
<polyline style="fill-rule:evenodd;"
points="57948,40308
58951,40308
58951,41253
57948,41253
57948,40308
" /> 
<polyline style="fill-rule:evenodd;"
points="57731,37946
59168,37946
59168,38891
57731,38891
57731,37946
" /> 
<polyline style="fill-rule:evenodd;"
points="61915,32863
61384,32863
61384,32154
61915,32154
61915,32863
" /> 
<polyline style="fill-rule:evenodd;"
points="61915,33945
61384,33945
61384,33236
61915,33236
61915,33945
" /> 
<polyline style="fill-rule:evenodd;"
points="64965,32863
64434,32863
64434,32154
64965,32154
64965,32863
" /> 
<polyline style="fill-rule:evenodd;"
points="64965,33945
64434,33945
64434,33236
64965,33236
64965,33945
" /> 
<polyline style="fill-rule:evenodd;"
points="50554,35185
50554,34614
51911,34614
51911,35185
50554,35185
" /> 
<polyline style="fill-rule:evenodd;"
points="48388,35185
48388,34614
49745,34614
49745,35185
48388,35185
" /> 
<polyline style="fill-rule:evenodd;"
points="54935,42995
54364,42995
54364,41638
54935,41638
54935,42995
" /> 
<polyline style="fill-rule:evenodd;"
points="54935,45161
54364,45161
54364,43804
54935,43804
54935,45161
" /> 
<polyline style="fill-rule:evenodd;"
points="44720,38120
44179,38120
44179,37579
44720,37579
44720,38120
" /> 
<circle cx="44450" cy="36850" r="270.472" /> 
<polyline style="fill-rule:evenodd;"
points="73179,36579
73720,36579
73720,37120
73179,37120
73179,36579
" /> 
<circle cx="73450" cy="37850" r="270.472" /> 
<polyline style="fill-rule:evenodd;"
points="51320,46054
51320,46595
50779,46595
50779,46054
51320,46054
" /> 
<circle cx="51050" cy="47325" r="270.472" /> 
<circle cx="50050" cy="46325" r="270.472" /> 
<circle cx="50050" cy="47325" r="270.472" /> 
<circle cx="49050" cy="46325" r="270.472" /> 
<circle cx="49050" cy="47325" r="270.472" /> 
<polyline style="fill-rule:evenodd;"
points="45029,51295
45029,50754
45570,50754
45570,51295
45029,51295
" /> 
<circle cx="45300" cy="50025" r="270.472" /> 
<circle cx="46300" cy="51025" r="270.472" /> 
<circle cx="46300" cy="50025" r="270.472" /> 
<circle cx="47300" cy="51025" r="270.472" /> 
<circle cx="47300" cy="50025" r="270.472" /> 
<circle cx="48300" cy="51025" r="270.472" /> 
<circle cx="48300" cy="50025" r="270.472" /> 
<circle cx="49300" cy="51025" r="270.472" /> 
<circle cx="49300" cy="50025" r="270.472" /> 
<circle cx="50300" cy="51025" r="270.472" /> 
<circle cx="50300" cy="50025" r="270.472" /> 
<circle cx="51300" cy="51025" r="270.472" /> 
<circle cx="51300" cy="50025" r="270.472" /> 
<circle cx="52300" cy="51025" r="270.472" /> 
<circle cx="52300" cy="50025" r="270.472" /> 
<circle cx="53300" cy="51025" r="270.472" /> 
<circle cx="53300" cy="50025" r="270.472" /> 
<circle cx="54300" cy="51025" r="270.472" /> 
<circle cx="54300" cy="50025" r="270.472" /> 
<circle cx="55300" cy="51025" r="270.472" /> 
<circle cx="55300" cy="50025" r="270.472" /> 
<circle cx="56300" cy="51025" r="270.472" /> 
<circle cx="56300" cy="50025" r="270.472" /> 
<circle cx="57300" cy="51025" r="270.472" /> 
<circle cx="57300" cy="50025" r="270.472" /> 
<polyline style="fill-rule:evenodd;"
points="56945,46054
56945,46595
56404,46595
56404,46054
56945,46054
" /> 
<circle cx="56675" cy="47325" r="270.472" /> 
<circle cx="55675" cy="46325" r="270.472" /> 
<circle cx="55675" cy="47325" r="270.472" /> 
<circle cx="54675" cy="46325" r="270.472" /> 
<circle cx="54675" cy="47325" r="270.472" /> 
<polyline style="fill-rule:evenodd;"
points="46779,36304
47320,36304
47320,36845
46779,36845
46779,36304
" /> 
<circle cx="47050" cy="37575" r="270.472" /> 
<circle cx="47050" cy="38575" r="270.472" /> 
<circle cx="47050" cy="39575" r="270.472" /> 
<circle cx="47050" cy="40575" r="270.472" /> 
<circle cx="73700" cy="40950" r="1151.57" /> 
<circle cx="52250" cy="32250" r="1151.57" /> 
<circle cx="45550" cy="45800" r="1151.57" /> 
<circle cx="63150" cy="44950" r="145.472" /> 
<circle cx="60125" cy="41975" r="145.472" /> 
<circle cx="56650" cy="42000" r="145.472" /> 
<circle cx="68050" cy="51300" r="145.472" /> 
<circle cx="47050" cy="35100" r="145.472" /> 
<circle cx="52900" cy="47325" r="145.472" /> 
<circle cx="56675" cy="48150" r="145.472" /> 
<circle cx="44900" cy="48475" r="145.472" /> 
<circle cx="67850" cy="37950" r="145.472" /> 
<circle cx="46450" cy="48475" r="145.472" /> 
<circle cx="57000" cy="32200" r="145.472" /> 
<circle cx="46200" cy="38575" r="145.472" /> 
<circle cx="45675" cy="48475" r="145.472" /> 
<circle cx="58725" cy="33125" r="145.472" /> 
<circle cx="45850" cy="39575" r="145.472" /> 
<circle cx="69000" cy="38500" r="145.472" /> 
<circle cx="52800" cy="51850" r="145.472" /> 
<circle cx="69850" cy="38500" r="145.472" /> 
<circle cx="50800" cy="51850" r="145.472" /> 
<circle cx="68350" cy="38500" r="145.472" /> 
<circle cx="51800" cy="51850" r="145.472" /> 
<circle cx="68750" cy="45500" r="145.472" /> 
<circle cx="72050" cy="47350" r="145.472" /> 
<circle cx="64750" cy="43900" r="145.472" /> 
<circle cx="53300" cy="48775" r="145.472" /> 
<circle cx="73900" cy="34800" r="145.472" /> 
<circle cx="74450" cy="48050" r="145.472" /> 
<circle cx="62275" cy="34800" r="145.472" /> 
<circle cx="56800" cy="35250" r="145.472" /> 
<circle cx="69850" cy="33100" r="145.472" /> 
<circle cx="69150" cy="33800" r="145.472" /> 
<circle cx="69500" cy="33450" r="145.472" /> 
<circle cx="70200" cy="32750" r="145.472" /> 
<circle cx="69900" cy="36050" r="145.472" /> 
<circle cx="69150" cy="35300" r="145.472" /> 
<circle cx="69550" cy="35700" r="145.472" /> 
<circle cx="70250" cy="36400" r="145.472" /> 
<circle cx="62600" cy="36000" r="145.472" /> 
<circle cx="63300" cy="35300" r="145.472" /> 
<circle cx="62950" cy="35650" r="145.472" /> 
<circle cx="62250" cy="36350" r="145.472" /> 
<circle cx="69550" cy="46800" r="145.472" /> 
<circle cx="68850" cy="47500" r="145.472" /> 
<circle cx="69200" cy="47150" r="145.472" /> 
<circle cx="69900" cy="46450" r="145.472" /> 
<circle cx="69550" cy="49600" r="145.472" /> 
<circle cx="68850" cy="48900" r="145.472" /> 
<circle cx="69200" cy="49250" r="145.472" /> 
<circle cx="69900" cy="49950" r="145.472" /> 
<circle cx="62750" cy="49600" r="145.472" /> 
<circle cx="63450" cy="48900" r="145.472" /> 
<circle cx="63100" cy="49250" r="145.472" /> 
<circle cx="62400" cy="49950" r="145.472" /> 
<circle cx="69900" cy="48200" r="145.472" /> 
<circle cx="73000" cy="48050" r="145.472" /> 
<circle cx="46950" cy="47750" r="145.472" /> 
<circle cx="52900" cy="45700" r="145.472" /> 
<circle cx="63300" cy="30700" r="145.472" /> 
<circle cx="54250" cy="35525" r="145.472" /> 
<circle cx="65900" cy="39500" r="145.472" /> 
<circle cx="47750" cy="34050" r="145.472" /> 
<circle cx="53275" cy="36325" r="145.472" /> 
<circle cx="56275" cy="45350" r="145.472" /> 
<circle cx="54250" cy="34200" r="145.472" /> 
<circle cx="61900" cy="46600" r="145.472" /> 
<circle cx="59900" cy="30900" r="145.472" /> 
<circle cx="70500" cy="34800" r="145.472" /> 
<circle cx="72900" cy="34800" r="145.472" /> 
<circle cx="59300" cy="47500" r="145.472" /> 
<circle cx="52900" cy="46325" r="145.472" /> 
<circle cx="49050" cy="45500" r="145.472" /> 
<circle cx="52300" cy="48800" r="145.472" /> 
<circle cx="55150" cy="48500" r="145.472" /> 
<circle cx="44500" cy="34800" r="145.472" /> 
<circle cx="69850" cy="44300" r="145.472" /> 
<circle cx="68950" cy="50500" r="145.472" /> 
<circle cx="68050" cy="45100" r="145.472" /> 
<circle cx="70850" cy="44300" r="145.472" /> 
<circle cx="70350" cy="38900" r="145.472" /> 
<circle cx="65900" cy="51100" r="145.472" /> 
</g> 
</svg>
