<?xml version="1.0" standalone="no"?>
 <!DOCTYPE svg PUBLIC "-//W3C//DTD SVG 1.1//EN" 
 "http://www.w3.org/Graphics/SVG/1.1/DTD/svg11.dtd"> 
<svg xmlns="http://www.w3.org/2000/svg" version="1.1" 
    width="29.7002cm" height="21.0007cm" viewBox="0 0 116930 82680 ">
<title>SVG Picture created as er2_pcbv2-B_Mask.svg date 2015/07/06 17:09:22 </title>
  <desc>Picture generated by PCBNEW </desc>
<g style="fill:#000000; fill-opacity:1;stroke:#000000; stroke-opacity:1;
stroke-linecap:round; stroke-linejoin:round; "
 transform="translate(0 0) scale(1 1)">
</g>
<g style="fill:#000000; fill-opacity:0.0; 
stroke:#000000; stroke-width:59.0551; stroke-opacity:1; 
stroke-linecap:round; stroke-linejoin:round;">
<path d="M75500 52700
L75500 30050
" />
<path d="M42500 30050
L42500 52700
" />
<path d="M75500 30050
L42500 30050
" />
<path d="M42500 52700
L75500 52700
" />
</g>
<g style="fill:#000000; fill-opacity:1.0; 
stroke:#000000; stroke-width:59.0551; stroke-opacity:1; 
stroke-linecap:round; stroke-linejoin:round;">
<polyline style="fill-rule:evenodd;"
points="72654,33079
73145,33079
73145,33370
72654,33370
72654,33079
" /> 
<polyline style="fill-rule:evenodd;"
points="72654,33829
73145,33829
73145,34120
72654,34120
72654,33829
" /> 
<polyline style="fill-rule:evenodd;"
points="72295,51320
71804,51320
71804,51029
72295,51029
72295,51320
" /> 
<polyline style="fill-rule:evenodd;"
points="72295,50570
71804,50570
71804,50279
72295,50279
72295,50570
" /> 
<polyline style="fill-rule:evenodd;"
points="72779,49145
72779,48654
73070,48654
73070,49145
72779,49145
" /> 
<polyline style="fill-rule:evenodd;"
points="73529,49145
73529,48654
73820,48654
73820,49145
73529,49145
" /> 
<polyline style="fill-rule:evenodd;"
points="72295,49670
71804,49670
71804,49379
72295,49379
72295,49670
" /> 
<polyline style="fill-rule:evenodd;"
points="72295,48920
71804,48920
71804,48629
72295,48629
72295,48920
" /> 
<polyline style="fill-rule:evenodd;"
points="72779,50745
72779,50254
73070,50254
73070,50745
72779,50745
" /> 
<polyline style="fill-rule:evenodd;"
points="73529,50745
73529,50254
73820,50254
73820,50745
73529,50745
" /> 
<polyline style="fill-rule:evenodd;"
points="57379,45220
57379,44729
57670,44729
57670,45220
57379,45220
" /> 
<polyline style="fill-rule:evenodd;"
points="58129,45220
58129,44729
58420,44729
58420,45220
58129,45220
" /> 
<polyline style="fill-rule:evenodd;"
points="59454,45654
59945,45654
59945,45945
59454,45945
59454,45654
" /> 
<polyline style="fill-rule:evenodd;"
points="59454,46404
59945,46404
59945,46695
59454,46695
59454,46404
" /> 
<polyline style="fill-rule:evenodd;"
points="58929,45220
58929,44729
59220,44729
59220,45220
58929,45220
" /> 
<polyline style="fill-rule:evenodd;"
points="59679,45220
59679,44729
59970,44729
59970,45220
59679,45220
" /> 
<polyline style="fill-rule:evenodd;"
points="57904,45654
58395,45654
58395,45945
57904,45945
57904,45654
" /> 
<polyline style="fill-rule:evenodd;"
points="57904,46404
58395,46404
58395,46695
57904,46695
57904,46404
" /> 
<polyline style="fill-rule:evenodd;"
points="62979,40470
62979,39979
63270,39979
63270,40470
62979,40470
" /> 
<polyline style="fill-rule:evenodd;"
points="63729,40470
63729,39979
64020,39979
64020,40470
63729,40470
" /> 
<polyline style="fill-rule:evenodd;"
points="62595,39495
62104,39495
62104,39204
62595,39204
62595,39495
" /> 
<polyline style="fill-rule:evenodd;"
points="62595,38745
62104,38745
62104,38454
62595,38454
62595,38745
" /> 
<polyline style="fill-rule:evenodd;"
points="62979,38970
62979,38479
63270,38479
63270,38970
62979,38970
" /> 
<polyline style="fill-rule:evenodd;"
points="63729,38970
63729,38479
64020,38479
64020,38970
63729,38970
" /> 
<polyline style="fill-rule:evenodd;"
points="62595,41045
62104,41045
62104,40754
62595,40754
62595,41045
" /> 
<polyline style="fill-rule:evenodd;"
points="62595,40295
62104,40295
62104,40004
62595,40004
62595,40295
" /> 
<polyline style="fill-rule:evenodd;"
points="66770,38204
66770,38695
66479,38695
66479,38204
66770,38204
" /> 
<polyline style="fill-rule:evenodd;"
points="66020,38204
66020,38695
65729,38695
65729,38204
66020,38204
" /> 
<polyline style="fill-rule:evenodd;"
points="74145,32570
73654,32570
73654,32279
74145,32279
74145,32570
" /> 
<polyline style="fill-rule:evenodd;"
points="74145,31820
73654,31820
73654,31529
74145,31529
74145,31820
" /> 
<polyline style="fill-rule:evenodd;"
points="72654,31529
73145,31529
73145,31820
72654,31820
72654,31529
" /> 
<polyline style="fill-rule:evenodd;"
points="72654,32279
73145,32279
73145,32570
72654,32570
72654,32279
" /> 
<polyline style="fill-rule:evenodd;"
points="74145,34120
73654,34120
73654,33829
74145,33829
74145,34120
" /> 
<polyline style="fill-rule:evenodd;"
points="74145,33370
73654,33370
73654,33079
74145,33079
74145,33370
" /> 
<polyline style="fill-rule:evenodd;"
points="44720,43220
44179,43220
44179,42679
44720,42679
44720,43220
" /> 
<circle cx="44450" cy="41950" r="270.472" /> 
<polyline style="fill-rule:evenodd;"
points="73179,43379
73720,43379
73720,43920
73179,43920
73179,43379
" /> 
<circle cx="73450" cy="44650" r="270.472" /> 
<polyline style="fill-rule:evenodd;"
points="50245,31379
50245,31920
49704,31920
49704,31379
50245,31379
" /> 
<circle cx="48975" cy="31650" r="270.472" /> 
<polyline style="fill-rule:evenodd;"
points="44095,51295
43554,51295
43554,50754
44095,50754
44095,51295
" /> 
<circle cx="43825" cy="50025" r="270.472" /> 
<polyline style="fill-rule:evenodd;"
points="64540,50570
63999,50570
63999,50329
64540,50329
64540,50570
" /> 
<polyline style="fill-rule:evenodd;"
points="64540,50070
63999,50070
63999,49829
64540,49829
64540,50070
" /> 
<polyline style="fill-rule:evenodd;"
points="64540,49570
63999,49570
63999,49329
64540,49329
64540,49570
" /> 
<polyline style="fill-rule:evenodd;"
points="64540,49070
63999,49070
63999,48829
64540,48829
64540,49070
" /> 
<polyline style="fill-rule:evenodd;"
points="64540,48570
63999,48570
63999,48329
64540,48329
64540,48570
" /> 
<polyline style="fill-rule:evenodd;"
points="64540,48070
63999,48070
63999,47829
64540,47829
64540,48070
" /> 
<polyline style="fill-rule:evenodd;"
points="64540,47570
63999,47570
63999,47329
64540,47329
64540,47570
" /> 
<polyline style="fill-rule:evenodd;"
points="64540,47070
63999,47070
63999,46829
64540,46829
64540,47070
" /> 
<polyline style="fill-rule:evenodd;"
points="64540,46570
63999,46570
63999,46329
64540,46329
64540,46570
" /> 
<polyline style="fill-rule:evenodd;"
points="64540,46070
63999,46070
63999,45829
64540,45829
64540,46070
" /> 
<polyline style="fill-rule:evenodd;"
points="68290,46070
67749,46070
67749,45829
68290,45829
68290,46070
" /> 
<polyline style="fill-rule:evenodd;"
points="68300,46570
67759,46570
67759,46329
68300,46329
68300,46570
" /> 
<polyline style="fill-rule:evenodd;"
points="68300,47070
67759,47070
67759,46829
68300,46829
68300,47070
" /> 
<polyline style="fill-rule:evenodd;"
points="68300,47570
67759,47570
67759,47329
68300,47329
68300,47570
" /> 
<polyline style="fill-rule:evenodd;"
points="68300,48070
67759,48070
67759,47829
68300,47829
68300,48070
" /> 
<polyline style="fill-rule:evenodd;"
points="68300,48570
67759,48570
67759,48329
68300,48329
68300,48570
" /> 
<polyline style="fill-rule:evenodd;"
points="68300,49070
67759,49070
67759,48829
68300,48829
68300,49070
" /> 
<polyline style="fill-rule:evenodd;"
points="68300,49570
67759,49570
67759,49329
68300,49329
68300,49570
" /> 
<polyline style="fill-rule:evenodd;"
points="68300,50070
67759,50070
67759,49829
68300,49829
68300,50070
" /> 
<polyline style="fill-rule:evenodd;"
points="68300,50570
67759,50570
67759,50329
68300,50329
68300,50570
" /> 
<polyline style="fill-rule:evenodd;"
points="64540,36920
63999,36920
63999,36679
64540,36679
64540,36920
" /> 
<polyline style="fill-rule:evenodd;"
points="64540,36420
63999,36420
63999,36179
64540,36179
64540,36420
" /> 
<polyline style="fill-rule:evenodd;"
points="64540,35920
63999,35920
63999,35679
64540,35679
64540,35920
" /> 
<polyline style="fill-rule:evenodd;"
points="64540,35420
63999,35420
63999,35179
64540,35179
64540,35420
" /> 
<polyline style="fill-rule:evenodd;"
points="64540,34920
63999,34920
63999,34679
64540,34679
64540,34920
" /> 
<polyline style="fill-rule:evenodd;"
points="64540,34420
63999,34420
63999,34179
64540,34179
64540,34420
" /> 
<polyline style="fill-rule:evenodd;"
points="64540,33920
63999,33920
63999,33679
64540,33679
64540,33920
" /> 
<polyline style="fill-rule:evenodd;"
points="64540,33420
63999,33420
63999,33179
64540,33179
64540,33420
" /> 
<polyline style="fill-rule:evenodd;"
points="64540,32920
63999,32920
63999,32679
64540,32679
64540,32920
" /> 
<polyline style="fill-rule:evenodd;"
points="64540,32420
63999,32420
63999,32179
64540,32179
64540,32420
" /> 
<polyline style="fill-rule:evenodd;"
points="68290,32420
67749,32420
67749,32179
68290,32179
68290,32420
" /> 
<polyline style="fill-rule:evenodd;"
points="68300,32920
67759,32920
67759,32679
68300,32679
68300,32920
" /> 
<polyline style="fill-rule:evenodd;"
points="68300,33420
67759,33420
67759,33179
68300,33179
68300,33420
" /> 
<polyline style="fill-rule:evenodd;"
points="68300,33920
67759,33920
67759,33679
68300,33679
68300,33920
" /> 
<polyline style="fill-rule:evenodd;"
points="68300,34420
67759,34420
67759,34179
68300,34179
68300,34420
" /> 
<polyline style="fill-rule:evenodd;"
points="68300,34920
67759,34920
67759,34679
68300,34679
68300,34920
" /> 
<polyline style="fill-rule:evenodd;"
points="68300,35420
67759,35420
67759,35179
68300,35179
68300,35420
" /> 
<polyline style="fill-rule:evenodd;"
points="68300,35920
67759,35920
67759,35679
68300,35679
68300,35920
" /> 
<polyline style="fill-rule:evenodd;"
points="68300,36420
67759,36420
67759,36179
68300,36179
68300,36420
" /> 
<polyline style="fill-rule:evenodd;"
points="68300,36920
67759,36920
67759,36679
68300,36679
68300,36920
" /> 
<polyline style="fill-rule:evenodd;"
points="44720,38120
44179,38120
44179,37579
44720,37579
44720,38120
" /> 
<circle cx="44450" cy="36850" r="270.472" /> 
<polyline style="fill-rule:evenodd;"
points="73179,36579
73720,36579
73720,37120
73179,37120
73179,36579
" /> 
<circle cx="73450" cy="37850" r="270.472" /> 
<polyline style="fill-rule:evenodd;"
points="51320,46054
51320,46595
50779,46595
50779,46054
51320,46054
" /> 
<circle cx="51050" cy="47325" r="270.472" /> 
<circle cx="50050" cy="46325" r="270.472" /> 
<circle cx="50050" cy="47325" r="270.472" /> 
<circle cx="49050" cy="46325" r="270.472" /> 
<circle cx="49050" cy="47325" r="270.472" /> 
<polyline style="fill-rule:evenodd;"
points="45029,51295
45029,50754
45570,50754
45570,51295
45029,51295
" /> 
<circle cx="45300" cy="50025" r="270.472" /> 
<circle cx="46300" cy="51025" r="270.472" /> 
<circle cx="46300" cy="50025" r="270.472" /> 
<circle cx="47300" cy="51025" r="270.472" /> 
<circle cx="47300" cy="50025" r="270.472" /> 
<circle cx="48300" cy="51025" r="270.472" /> 
<circle cx="48300" cy="50025" r="270.472" /> 
<circle cx="49300" cy="51025" r="270.472" /> 
<circle cx="49300" cy="50025" r="270.472" /> 
<circle cx="50300" cy="51025" r="270.472" /> 
<circle cx="50300" cy="50025" r="270.472" /> 
<circle cx="51300" cy="51025" r="270.472" /> 
<circle cx="51300" cy="50025" r="270.472" /> 
<circle cx="52300" cy="51025" r="270.472" /> 
<circle cx="52300" cy="50025" r="270.472" /> 
<circle cx="53300" cy="51025" r="270.472" /> 
<circle cx="53300" cy="50025" r="270.472" /> 
<circle cx="54300" cy="51025" r="270.472" /> 
<circle cx="54300" cy="50025" r="270.472" /> 
<circle cx="55300" cy="51025" r="270.472" /> 
<circle cx="55300" cy="50025" r="270.472" /> 
<circle cx="56300" cy="51025" r="270.472" /> 
<circle cx="56300" cy="50025" r="270.472" /> 
<circle cx="57300" cy="51025" r="270.472" /> 
<circle cx="57300" cy="50025" r="270.472" /> 
<polyline style="fill-rule:evenodd;"
points="56945,46054
56945,46595
56404,46595
56404,46054
56945,46054
" /> 
<circle cx="56675" cy="47325" r="270.472" /> 
<circle cx="55675" cy="46325" r="270.472" /> 
<circle cx="55675" cy="47325" r="270.472" /> 
<circle cx="54675" cy="46325" r="270.472" /> 
<circle cx="54675" cy="47325" r="270.472" /> 
<polyline style="fill-rule:evenodd;"
points="46779,36304
47320,36304
47320,36845
46779,36845
46779,36304
" /> 
<circle cx="47050" cy="37575" r="270.472" /> 
<circle cx="47050" cy="38575" r="270.472" /> 
<circle cx="47050" cy="39575" r="270.472" /> 
<circle cx="47050" cy="40575" r="270.472" /> 
<polyline style="fill-rule:evenodd;"
points="70918,42333
70918,43140
70781,43140
70781,42333
70918,42333
" /> 
<polyline style="fill-rule:evenodd;"
points="70421,42333
70421,43140
70284,43140
70284,42333
70421,42333
" /> 
<polyline style="fill-rule:evenodd;"
points="69921,42333
69921,43140
69784,43140
69784,42333
69921,42333
" /> 
<polyline style="fill-rule:evenodd;"
points="69421,42333
69421,43140
69284,43140
69284,42333
69421,42333
" /> 
<polyline style="fill-rule:evenodd;"
points="68918,42333
68918,43140
68781,43140
68781,42333
68918,42333
" /> 
<polyline style="fill-rule:evenodd;"
points="68422,42333
68422,43140
68285,43140
68285,42333
68422,42333
" /> 
<polyline style="fill-rule:evenodd;"
points="67922,42333
67922,43140
67785,43140
67785,42333
67922,42333
" /> 
<polyline style="fill-rule:evenodd;"
points="67422,42333
67422,43140
67285,43140
67285,42333
67422,42333
" /> 
<polyline style="fill-rule:evenodd;"
points="67418,39539
67418,40346
67281,40346
67281,39539
67418,39539
" /> 
<polyline style="fill-rule:evenodd;"
points="67918,39539
67918,40346
67781,40346
67781,39539
67918,39539
" /> 
<polyline style="fill-rule:evenodd;"
points="68418,39539
68418,40346
68281,40346
68281,39539
68418,39539
" /> 
<polyline style="fill-rule:evenodd;"
points="68918,39539
68918,40346
68781,40346
68781,39539
68918,39539
" /> 
<polyline style="fill-rule:evenodd;"
points="69418,39539
69418,40346
69281,40346
69281,39539
69418,39539
" /> 
<polyline style="fill-rule:evenodd;"
points="69918,39539
69918,40346
69781,40346
69781,39539
69918,39539
" /> 
<polyline style="fill-rule:evenodd;"
points="70418,39539
70418,40346
70281,40346
70281,39539
70418,39539
" /> 
<polyline style="fill-rule:evenodd;"
points="70918,39539
70918,40346
70781,40346
70781,39539
70918,39539
" /> 
<circle cx="73700" cy="40950" r="1151.57" /> 
<circle cx="52250" cy="32250" r="1151.57" /> 
<circle cx="45550" cy="45800" r="1151.57" /> 
<circle cx="63150" cy="44950" r="145.472" /> 
<circle cx="60125" cy="41975" r="145.472" /> 
<circle cx="56650" cy="42000" r="145.472" /> 
<circle cx="68050" cy="51300" r="145.472" /> 
<circle cx="47050" cy="35100" r="145.472" /> 
<circle cx="52900" cy="47325" r="145.472" /> 
<circle cx="56675" cy="48150" r="145.472" /> 
<circle cx="44900" cy="48475" r="145.472" /> 
<circle cx="67850" cy="37950" r="145.472" /> 
<circle cx="46450" cy="48475" r="145.472" /> 
<circle cx="57000" cy="32200" r="145.472" /> 
<circle cx="46200" cy="38575" r="145.472" /> 
<circle cx="45675" cy="48475" r="145.472" /> 
<circle cx="58725" cy="33125" r="145.472" /> 
<circle cx="45850" cy="39575" r="145.472" /> 
<circle cx="69000" cy="38500" r="145.472" /> 
<circle cx="52800" cy="51850" r="145.472" /> 
<circle cx="69850" cy="38500" r="145.472" /> 
<circle cx="50800" cy="51850" r="145.472" /> 
<circle cx="68350" cy="38500" r="145.472" /> 
<circle cx="51800" cy="51850" r="145.472" /> 
<circle cx="68750" cy="45500" r="145.472" /> 
<circle cx="72050" cy="47350" r="145.472" /> 
<circle cx="64750" cy="43900" r="145.472" /> 
<circle cx="53300" cy="48775" r="145.472" /> 
<circle cx="73900" cy="34800" r="145.472" /> 
<circle cx="74450" cy="48050" r="145.472" /> 
<circle cx="62275" cy="34800" r="145.472" /> 
<circle cx="56800" cy="35250" r="145.472" /> 
<circle cx="69850" cy="33100" r="145.472" /> 
<circle cx="69150" cy="33800" r="145.472" /> 
<circle cx="69500" cy="33450" r="145.472" /> 
<circle cx="70200" cy="32750" r="145.472" /> 
<circle cx="69900" cy="36050" r="145.472" /> 
<circle cx="69150" cy="35300" r="145.472" /> 
<circle cx="69550" cy="35700" r="145.472" /> 
<circle cx="70250" cy="36400" r="145.472" /> 
<circle cx="62600" cy="36000" r="145.472" /> 
<circle cx="63300" cy="35300" r="145.472" /> 
<circle cx="62950" cy="35650" r="145.472" /> 
<circle cx="62250" cy="36350" r="145.472" /> 
<circle cx="69550" cy="46800" r="145.472" /> 
<circle cx="68850" cy="47500" r="145.472" /> 
<circle cx="69200" cy="47150" r="145.472" /> 
<circle cx="69900" cy="46450" r="145.472" /> 
<circle cx="69550" cy="49600" r="145.472" /> 
<circle cx="68850" cy="48900" r="145.472" /> 
<circle cx="69200" cy="49250" r="145.472" /> 
<circle cx="69900" cy="49950" r="145.472" /> 
<circle cx="62750" cy="49600" r="145.472" /> 
<circle cx="63450" cy="48900" r="145.472" /> 
<circle cx="63100" cy="49250" r="145.472" /> 
<circle cx="62400" cy="49950" r="145.472" /> 
<circle cx="69900" cy="48200" r="145.472" /> 
<circle cx="73000" cy="48050" r="145.472" /> 
<circle cx="46950" cy="47750" r="145.472" /> 
<circle cx="52900" cy="45700" r="145.472" /> 
<circle cx="63300" cy="30700" r="145.472" /> 
<circle cx="54250" cy="35525" r="145.472" /> 
<circle cx="65900" cy="39500" r="145.472" /> 
<circle cx="47750" cy="34050" r="145.472" /> 
<circle cx="53275" cy="36325" r="145.472" /> 
<circle cx="56275" cy="45350" r="145.472" /> 
<circle cx="54250" cy="34200" r="145.472" /> 
<circle cx="61900" cy="46600" r="145.472" /> 
<circle cx="59900" cy="30900" r="145.472" /> 
<circle cx="70500" cy="34800" r="145.472" /> 
<circle cx="72900" cy="34800" r="145.472" /> 
<circle cx="59300" cy="47500" r="145.472" /> 
<circle cx="52900" cy="46325" r="145.472" /> 
<circle cx="49050" cy="45500" r="145.472" /> 
<circle cx="52300" cy="48800" r="145.472" /> 
<circle cx="55150" cy="48500" r="145.472" /> 
<circle cx="44500" cy="34800" r="145.472" /> 
<circle cx="69850" cy="44300" r="145.472" /> 
<circle cx="68950" cy="50500" r="145.472" /> 
<circle cx="68050" cy="45100" r="145.472" /> 
<circle cx="70850" cy="44300" r="145.472" /> 
<circle cx="70350" cy="38900" r="145.472" /> 
<circle cx="65900" cy="51100" r="145.472" /> 
</g> 
</svg>
